<svg width="24" height="24" viewBox="0 0 24 24" fill="currentColor" xmlns="http://www.w3.org/2000/svg">
<path fill-rule="evenodd" clip-rule="evenodd" d="M12 4.75C7.99594 4.75 4.75 7.99594 4.75 12C4.75 16.0041 7.99594 19.25 12 19.25C16.0041 19.25 19.25 16.0041 19.25 12C19.25 7.99594 16.0041 4.75 12 4.75ZM3.25 12C3.25 7.16751 7.16751 3.25 12 3.25C16.8325 3.25 20.75 7.16751 20.75 12C20.75 16.8325 16.8325 20.75 12 20.75C7.16751 20.75 3.25 16.8325 3.25 12ZM11.4649 6.84778C12.0873 6.74904 12.7245 6.82423 13.3068 7.06527C13.8892 7.30635 14.3934 7.70394 14.7638 8.21357C15.1345 8.72353 15.3563 9.3257 15.4058 9.95364C15.4553 10.5819 15.33 11.2117 15.044 11.7732C14.758 12.3346 14.3227 12.8058 13.7853 13.1351C13.4642 13.332 13.1142 13.4734 12.75 13.5553V13.778C12.75 14.1922 12.4142 14.528 12 14.528C11.5858 14.528 11.25 14.1922 11.25 13.778V12.8887C11.25 12.4745 11.5858 12.1387 12 12.1387C12.3535 12.1387 12.7001 12.0409 13.0015 11.8562C13.3028 11.6715 13.5469 11.4074 13.7074 11.0923C13.8679 10.7772 13.9382 10.4239 13.9104 10.0715C13.8826 9.71885 13.7581 9.3812 13.5504 9.09546C13.3425 8.80939 13.0596 8.58637 12.7331 8.45122C12.4065 8.31603 12.0492 8.27385 11.7 8.32925C11.3507 8.38466 11.0233 8.53568 10.7546 8.76525C10.4858 8.99499 10.286 9.29415 10.1769 9.63028C10.0491 10.0243 9.62602 10.24 9.23203 10.1121C8.83805 9.98428 8.62231 9.56124 8.75017 9.16726C8.94472 8.56776 9.30114 8.03427 9.7801 7.62494C10.2593 7.21545 10.8427 6.9465 11.4649 6.84778ZM11.2057 16.4444C11.2057 16.0302 11.5415 15.6944 11.9557 15.6944H12.0443C12.4585 15.6944 12.7943 16.0302 12.7943 16.4444V16.5333C12.7943 16.947 12.4594 17.2825 12.0457 17.2833L11.9572 17.2835C11.758 17.2839 11.5669 17.205 11.4259 17.0644C11.2849 16.9237 11.2057 16.7327 11.2057 16.5335V16.4444Z" fill="currentColor"/>
</svg>
