<svg width="24" height="24" viewBox="0 0 24 24" fill="none" xmlns="http://www.w3.org/2000/svg">
<path fill-rule="evenodd" clip-rule="evenodd" d="M8.71247 3.25L12.5808 3.25C12.6839 3.25 12.7787 3.25 12.8641 3.25081C13.1138 3.25316 13.3455 3.2615 13.5858 3.32134C13.8403 3.38469 14.0819 3.48909 14.3023 3.62916C14.5526 3.78827 14.7607 4.00433 15.01 4.26331C15.0257 4.27962 15.0416 4.29609 15.0576 4.31274L17.7366 7.09094C17.7512 7.10611 17.7657 7.1211 17.78 7.13594C18.0332 7.39816 18.2399 7.61235 18.3923 7.87018C18.5253 8.09522 18.6235 8.34028 18.6828 8.59647C18.7354 8.82368 18.7456 9.04398 18.7486 9.28679C18.7495 9.30219 18.75 9.3177 18.75 9.33333C18.75 9.34424 18.7498 9.35509 18.7493 9.36588C18.7498 9.44448 18.7498 9.53028 18.7498 9.62283V17.1877C18.7498 17.6599 18.7499 18.0575 18.7242 18.3831C18.6973 18.7234 18.639 19.0492 18.4863 19.36C18.2536 19.8336 17.8791 20.2236 17.4137 20.4695C17.1049 20.6327 16.7808 20.6948 16.4468 20.7231C16.1295 20.75 15.7433 20.75 15.2902 20.75L8.70968 20.75C8.25658 20.75 7.87015 20.75 7.55272 20.7231C7.21864 20.6948 6.89432 20.6328 6.58542 20.4695C6.11927 20.2232 5.74603 19.8328 5.5137 19.36C5.36089 19.0489 5.30252 18.7229 5.27567 18.3822C5.24998 18.0561 5.24999 17.6579 5.25 17.1847V6.81566C5.24999 6.34249 5.24998 5.9441 5.27567 5.61791C5.30251 5.27714 5.36086 4.95085 5.5137 4.63976C5.74624 4.16646 6.11969 3.77675 6.58542 3.53065C6.89453 3.36731 7.2191 3.30523 7.55358 3.2769C7.87142 3.24998 8.25845 3.24999 8.71247 3.25ZM17.0683 8.58333C17.0137 8.50699 16.9167 8.40169 16.6568 8.13214L13.9779 5.35393C13.7835 5.15236 13.6778 5.04539 13.607 4.9811V6.48889C13.607 6.99866 13.6076 7.33738 13.6281 7.59743C13.6479 7.84946 13.683 7.96229 13.717 8.03157C13.8135 8.22796 13.9645 8.38219 14.1433 8.47664C14.2007 8.50699 14.2995 8.54173 14.5364 8.56182C14.7829 8.58271 15.1053 8.58333 15.5972 8.58333H17.0683ZM12.107 4.75H8.74299C8.25013 4.75 7.92714 4.75063 7.68019 4.77155C7.44277 4.79166 7.3438 4.82645 7.28621 4.85688C7.10682 4.95167 6.95615 5.10549 6.85999 5.30122C6.82599 5.37041 6.79091 5.48336 6.77104 5.73568C6.75054 5.99594 6.75 6.33486 6.75 6.84462V17.1557C6.75 17.6655 6.75054 18.0042 6.77104 18.2643C6.7909 18.5164 6.82595 18.6292 6.85999 18.6985C6.95636 18.8947 7.10724 19.0487 7.28621 19.1433C7.34365 19.1737 7.44242 19.2084 7.67939 19.2285C7.9259 19.2494 8.24827 19.25 8.7402 19.25L15.2597 19.25C15.7516 19.25 16.0738 19.2494 16.3201 19.2285C16.5567 19.2084 16.6554 19.1737 16.7129 19.1433C16.8927 19.0483 17.0441 18.8938 17.14 18.6985C17.174 18.6294 17.209 18.5168 17.2288 18.2652C17.2493 18.0056 17.2498 17.6675 17.2498 17.1587V10.0833L15.5667 10.0833C15.1136 10.0833 14.7272 10.0834 14.4098 10.0565C14.0757 10.0281 13.7514 9.9661 13.4425 9.80287C12.9761 9.55644 12.603 9.16566 12.3708 8.69303C12.2179 8.38203 12.1596 8.05598 12.1327 7.71528C12.107 7.38925 12.107 6.99102 12.107 6.51789V4.75Z" fill="#9CA3AD"/>
</svg>
