<svg width="24" height="24" viewBox="0 0 24 24" fill="none" xmlns="http://www.w3.org/2000/svg">
<path fill-rule="evenodd" clip-rule="evenodd" d="M3.25 6C3.25 4.48122 4.48122 3.25 6 3.25H18C19.5188 3.25 20.75 4.48122 20.75 6V18C20.75 19.5188 19.5188 20.75 18 20.75H16.6667C15.1479 20.75 13.9167 19.5188 13.9167 18V14.4501C13.5416 14.6419 13.1168 14.75 12.6667 14.75H11.3333C10.8832 14.75 10.4584 14.6419 10.0833 14.4501V16C10.0833 17.5188 8.85212 18.75 7.33333 18.75H6C4.48122 18.75 3.25 17.5188 3.25 16V6ZM10.0833 12C10.0833 12.6904 10.643 13.25 11.3333 13.25H12.6667C13.357 13.25 13.9167 12.6904 13.9167 12V4.75H10.0833V12ZM8.58333 4.75H6C5.30964 4.75 4.75 5.30964 4.75 6V16C4.75 16.6904 5.30964 17.25 6 17.25H7.33333C8.02369 17.25 8.58333 16.6904 8.58333 16V4.75ZM15.4167 4.75V18C15.4167 18.6904 15.9763 19.25 16.6667 19.25H18C18.6904 19.25 19.25 18.6904 19.25 18V6C19.25 5.30964 18.6904 4.75 18 4.75H15.4167Z" fill="#9CA3AD"/>
</svg>
