<svg width="24" height="24" viewBox="0 0 24 24" fill="currentColor" xmlns="http://www.w3.org/2000/svg">
<path fill-rule="evenodd" clip-rule="evenodd" d="M13.25 7C13.25 6.58579 13.5858 6.25 14 6.25H20.0005C20.1994 6.25 20.3901 6.32903 20.5308 6.46969C20.6715 6.61035 20.7505 6.80113 20.7505 7.00006L20.75 13.0001C20.75 13.4143 20.4142 13.75 19.9999 13.75C19.5857 13.75 19.25 13.4142 19.25 12.9999L19.2503 8.83084L14.6887 13.4637L14.1543 12.9375L14.6887 13.4637C14.5897 13.5643 14.518 13.6371 14.4494 13.6985L13.9492 13.1396L14.4494 13.6985C13.4053 14.633 11.8262 14.633 10.782 13.6985C10.714 13.6376 10.6432 13.5662 10.5423 13.4637C10.4291 13.3488 10.3968 13.3165 10.3719 13.2942C9.89727 12.8694 9.1794 12.8694 8.7048 13.2942C8.67999 13.3164 8.64781 13.3485 8.5352 13.4629L4.53443 17.5262C4.24381 17.8214 3.76895 17.825 3.4738 17.5344C3.17864 17.2438 3.17496 16.769 3.46557 16.4738L7.46635 12.4105C7.47193 12.4048 7.47743 12.3993 7.48286 12.3937C7.57122 12.304 7.63942 12.2347 7.70441 12.1765L8.20461 12.7354L7.70441 12.1765C8.74853 11.242 10.3281 11.242 11.3723 12.1765L10.8721 12.7354L11.3723 12.1765C11.4374 12.2348 11.5057 12.3042 11.5945 12.3945C11.6 12.4 11.6055 12.4056 11.6111 12.4113L11.0767 12.9375L11.6111 12.4113C11.7203 12.5221 11.7564 12.5575 11.7824 12.5808L11.2822 13.1396L11.7824 12.5808C12.257 13.0056 12.9744 13.0056 13.449 12.5808C13.4745 12.558 13.5089 12.524 13.6199 12.4113L18.2095 7.75H14C13.5858 7.75 13.25 7.41421 13.25 7Z" fill="currentColor"/>
</svg>
