<svg width="24" height="24" viewBox="0 0 24 24" fill="currentColor" xmlns="http://www.w3.org/2000/svg">
<path fill-rule="evenodd" clip-rule="evenodd" d="M4 4.25C4.41421 4.25 4.75 4.58579 4.75 5V12.6807L6.93132 10.772L6.93692 10.7672L6.95317 10.753C7.24678 10.4961 7.49607 10.2779 7.71435 10.1124C7.94308 9.93901 8.18087 9.7891 8.46105 9.69727C9.03427 9.50938 9.65227 9.53955 10.2048 9.78024C10.4751 9.89797 10.6984 10.0693 10.9111 10.2637C11.1143 10.4493 11.344 10.6906 11.6152 10.9754L11.6326 10.9936L11.6383 10.9996C11.9361 11.3122 12.1331 11.5185 12.2959 11.667C12.4535 11.8108 12.5376 11.8608 12.5937 11.8848C12.8134 11.9787 13.0568 11.9869 13.2827 11.9083C13.3401 11.8883 13.4271 11.8444 13.5941 11.7116C13.7665 11.5743 13.9774 11.3813 14.2963 11.0883L19.4924 6.31438C19.7974 6.03414 20.2718 6.05422 20.5521 6.35925C20.8323 6.66427 20.8122 7.13871 20.5072 7.41896L15.2959 12.2069C14.9991 12.4796 14.748 12.7103 14.5279 12.8854C14.2985 13.0679 14.0595 13.2261 13.7761 13.3248C13.1982 13.5261 12.5684 13.5054 12.0038 13.2639C11.7285 13.1461 11.5012 12.9724 11.2851 12.7753C11.0786 12.5869 10.8452 12.3418 10.5697 12.0526L10.5521 12.0341L10.5464 12.0281C10.2532 11.7202 10.0594 11.5173 9.89932 11.3711C9.74453 11.2296 9.66169 11.1798 9.60581 11.1554C9.38887 11.0609 9.15027 11.0499 8.92826 11.1227C8.87185 11.1411 8.78615 11.1822 8.62062 11.3077C8.44934 11.4376 8.23966 11.6205 7.92192 11.8985L7.91629 11.9033L4.75 14.6739V16.0133C4.75 16.5478 4.75053 16.9057 4.77196 17.181C4.79278 17.4485 4.82987 17.5733 4.86852 17.653C4.97235 17.867 5.13422 18.0338 5.32428 18.1354C5.38772 18.1694 5.49327 18.2062 5.74002 18.2273C5.99663 18.2494 6.33184 18.25 6.84167 18.25H20C20.4142 18.25 20.75 18.5858 20.75 19C20.75 19.4142 20.4142 19.75 20 19.75H6.81065C6.34024 19.75 5.94018 19.75 5.61179 19.7218C5.26635 19.6922 4.93315 19.6274 4.61667 19.458C4.13772 19.2018 3.75606 18.7963 3.51901 18.3078C3.36389 17.9882 3.3041 17.6522 3.27648 17.2974C3.24998 16.9569 3.24999 16.5404 3.25 16.0423L3.25 5C3.25 4.58579 3.58579 4.25 4 4.25Z" fill="currentColor"/>
</svg>
