<svg width="94" height="16" viewBox="0 0 94 16" fill="none" xmlns="http://www.w3.org/2000/svg">
<path d="M87.9836 2.87053L76.8169 1.30884C78.4369 3.81526 87.9836 2.87053 87.9836 2.87053Z" fill="#67CF6A"/>
<path d="M88.6588 3.25635C88.6588 3.25635 81.87 8.01856 75.3899 6.0327L88.6588 3.25635Z" fill="#67CF6A"/>
<path d="M85.1679 6.36046C78.6878 9.54169 76.7977 12.8772 76.7977 12.8772C84.6665 6.6111 91.2816 7.22807 91.2816 7.22807C91.2816 7.22807 90.4138 6.16766 88.6201 5.85917C88.6201 5.85917 90.7416 5.82061 91.5324 5.10725C92.2845 4.43244 92.0917 3.64195 91.2816 3.25635H93.3838C94.136 5.70493 89.9702 5.85917 89.9702 5.85917C93.2874 6.5147 93.731 9.19465 93.731 9.19465C83.8179 8.05712 74.4448 15.4993 74.4448 15.4993C77.2799 8.90545 85.1679 6.36046 85.1679 6.36046Z" fill="#67CF6A"/>
<path d="M54.7148 3.73926C51.7255 3.73926 49.5461 5.76368 49.5461 8.54003C49.5461 11.3164 51.7255 13.3408 54.7148 13.3408C57.7042 13.3408 59.8835 11.3164 59.8835 8.54003C59.8835 5.76368 57.7042 3.73926 54.7148 3.73926ZM54.7148 11.2393C52.8634 11.2393 51.6676 10.1788 51.6676 8.54003C51.6676 6.90121 52.8634 5.8408 54.7148 5.8408C56.5663 5.8408 57.762 6.90121 57.762 8.54003C57.762 10.1788 56.5663 11.2393 54.7148 11.2393Z" fill="black"/>
<path d="M30.3757 3.73956C29.045 3.73956 27.8492 4.12517 26.8849 4.76141V0.500488H24.7441V13.3604L30.5107 13.3411C33.5001 13.3411 35.6794 11.3167 35.6794 8.54033C35.6794 5.7447 33.4422 3.73956 30.3757 3.73956ZM30.5107 11.2396H26.8849V8.69458C26.8849 7.96193 27.1935 7.22928 27.7528 6.74727C28.3892 6.18815 29.315 5.86038 30.3757 5.86038C32.2465 5.86038 33.5579 6.95936 33.5579 8.55961C33.5579 10.1792 32.3622 11.2396 30.5107 11.2396Z" fill="black"/>
<path d="M42.9116 3.73956C41.5808 3.73956 40.3851 4.12517 39.4208 4.76141V0.500488H37.28V13.3604L43.0466 13.3411C46.0359 13.3411 48.2153 11.3167 48.2153 8.54033C48.2153 5.76398 45.9781 3.73956 42.9116 3.73956ZM43.0273 11.2396H39.4015V8.69458C39.4015 7.96193 39.7101 7.22928 40.2694 6.74727C40.9058 6.18815 41.8316 5.86038 42.8923 5.86038C44.7631 5.86038 46.0745 6.95936 46.0745 8.55961C46.0938 10.1792 44.8981 11.2396 43.0273 11.2396Z" fill="black"/>
<path d="M9.66236 6.90153C10.0095 6.3424 10.2024 5.68687 10.2024 4.97351C10.2024 2.91053 8.52448 1.21387 6.44158 1.21387H0V13.3604H2.14076V8.73315C2.14076 8.73315 4.30081 8.73315 5.05297 8.73315L8.0809 13.3604H10.646L7.48303 8.54034C8.37019 8.2897 9.16092 7.7113 9.66236 6.90153ZM2.14076 3.37325H6.42229C7.30945 3.37325 8.02304 4.08662 8.02304 4.97351C8.02304 5.8604 7.30945 6.57376 6.42229 6.57376H2.14076V3.37325Z" fill="black"/>
<path d="M11.6104 8.67625C11.6104 11.4719 13.7897 13.5156 16.8176 13.5156C18.1676 13.5156 19.4212 12.9757 20.4434 12.0888V13.3613H22.5649V3.83691H16.8176C13.7897 3.83691 11.6104 5.88062 11.6104 8.67625ZM20.4241 7.42303C20.4241 9.67882 18.5148 11.3562 16.7983 11.3562C14.9469 11.3562 13.7511 10.2958 13.7511 8.67625C13.7511 7.05671 14.9469 5.9963 16.7983 5.9963H20.4241V7.42303Z" fill="black"/>
<path d="M66.6723 5.99535V3.85524H63.4516V0.500488H61.3108V8.01977C61.3108 10.9696 63.7023 13.3604 66.6531 13.3604V11.2203C64.8787 11.2203 63.4516 9.79355 63.4516 8.01977V5.99535H66.6723Z" fill="black"/>
</svg>
