<svg width="24" height="24" viewBox="0 0 24 24" fill="none" xmlns="http://www.w3.org/2000/svg">
<path fill-rule="evenodd" clip-rule="evenodd" d="M10.2222 4.75C7.2 4.75 4.75 7.2 4.75 10.2222C4.75 13.2444 7.2 15.6944 10.2222 15.6944C13.2444 15.6944 15.6944 13.2444 15.6944 10.2222C15.6944 7.2 13.2444 4.75 10.2222 4.75ZM3.25 10.2222C3.25 6.37157 6.37157 3.25 10.2222 3.25C14.0729 3.25 17.1944 6.37157 17.1944 10.2222C17.1944 11.8774 16.6177 13.3978 15.6542 14.5936L20.5303 19.4697C20.8232 19.7626 20.8232 20.2374 20.5303 20.5303C20.2374 20.8232 19.7626 20.8232 19.4697 20.5303L14.5936 15.6542C13.3978 16.6177 11.8774 17.1944 10.2222 17.1944C6.37157 17.1944 3.25 14.0729 3.25 10.2222Z" fill="#9CA3AD"/>
</svg>
