<svg width="24" height="24" viewBox="0 0 24 24" fill="currentColor" xmlns="http://www.w3.org/2000/svg">
<path fill-rule="evenodd" clip-rule="evenodd" d="M7.65959 3.81567C6.55024 3.81567 5.65093 4.71498 5.65093 5.82434V13.1286C5.65093 14.2379 6.55024 15.1372 7.6596 15.1372H8.63349C9.74285 15.1372 10.6422 14.2379 10.6422 13.1286V11.9965C10.9161 12.1366 11.2264 12.2156 11.5552 12.2156H12.5291C12.8579 12.2156 13.1682 12.1366 13.4421 11.9965V14.5894C13.4421 15.6988 14.3414 16.5981 15.4508 16.5981H16.4247C17.534 16.5981 18.4334 15.6988 18.4334 14.5894V5.82434C18.4334 4.71498 17.534 3.81567 16.4247 3.81567H7.65959ZM11.5552 11.1199C11.0509 11.1199 10.6422 10.7111 10.6422 10.2069V4.91131H13.4421V10.2069C13.4421 10.7111 13.0333 11.1199 12.5291 11.1199H11.5552ZM7.65959 4.91131H9.54652V13.1286C9.54652 13.6328 9.13775 14.0416 8.63349 14.0416H7.6596C7.15534 14.0416 6.74656 13.6328 6.74656 13.1286V5.82434C6.74656 5.32009 7.15534 4.91131 7.65959 4.91131ZM14.5378 14.5894V4.91131H16.4247C16.9289 4.91131 17.3377 5.32009 17.3377 5.82434V14.5894C17.3377 15.0937 16.9289 15.5025 16.4247 15.5025H15.4508C14.9465 15.5025 14.5378 15.0937 14.5378 14.5894ZM2.45532 15.5728C2.45532 14.5148 3.40463 13.5933 4.97215 12.928V14.185C4.11446 14.6092 3.61153 15.0895 3.61153 15.5729C3.61153 16.0722 4.1776 16.5817 5.12984 17.0315C6.02442 17.4543 7.21959 17.7917 8.6033 18.0034V17.5638C8.6033 17.3834 8.69363 17.2276 8.85118 17.1374C9.00874 17.0472 9.1894 17.0472 9.34752 17.1374L11.2035 18.2008C11.361 18.291 11.4513 18.4468 11.4513 18.6271C11.4513 18.8082 11.361 18.9633 11.2035 19.0535L9.34752 20.1169C9.18997 20.2071 9.00931 20.2071 8.85118 20.1169C8.69363 20.0267 8.6033 19.8709 8.6033 19.6905V19.1609C7.02799 18.9335 5.65867 18.5529 4.63357 18.0682C3.26747 17.4222 2.45532 16.5609 2.45532 15.5728ZM20.3871 15.5729C20.3871 15.0897 19.8849 14.6096 19.0278 14.1855V12.9278C20.5958 13.5927 21.5447 14.5143 21.5447 15.5728C21.5447 16.5525 20.7434 17.4084 19.393 18.0532C18.165 18.6396 16.4408 19.0763 14.46 19.2753C14.143 19.306 13.8605 19.0762 13.8291 18.7617C13.7982 18.4472 14.0297 18.1668 14.3467 18.1356C16.1946 17.9498 17.7838 17.5516 18.8955 17.0212C19.8314 16.5742 20.3871 16.0691 20.3871 15.5729Z" fill="currentColor"/>
</svg>
