<svg width="24" height="24" viewBox="0 0 24 24" fill="currentColor" xmlns="http://www.w3.org/2000/svg">
<path fill-rule="evenodd" clip-rule="evenodd" d="M13.9594 20.0123C14.1231 20.0487 14.2913 20.0669 14.4595 20.0669C14.6141 20.0669 14.7732 20.0532 14.9005 20.0169C15.259 19.9407 15.5512 19.7718 16.034 19.4927L16.0553 19.4804L16.4418 19.2576C16.951 18.9621 17.2329 18.7984 17.4738 18.5256C17.6921 18.2801 17.8512 17.9982 17.9467 17.6845C18.0558 17.339 18.0512 17.0162 18.0421 16.4297L18.0376 16.0114C18.0376 15.875 18.0694 15.7477 18.1467 15.6068L18.2104 15.4977C18.2785 15.3886 18.374 15.2931 18.5559 15.1885L18.8378 15.0339C19.3561 14.7475 19.6425 14.5884 19.8971 14.3156C20.1199 14.0746 20.2835 13.7928 20.3881 13.4836C20.502 13.1418 20.5019 12.8127 20.5018 12.2806C20.5018 12.2606 20.5018 12.2403 20.5018 12.2197V11.7741C20.5018 11.2058 20.4972 10.8649 20.3836 10.5102C20.2835 10.2011 20.1153 9.9192 19.8971 9.68278C19.6516 9.41454 19.3742 9.25996 18.865 8.97808L18.8514 8.96899L18.4968 8.77349C18.3877 8.70529 18.2922 8.60982 18.2149 8.48706C18.2149 8.48479 18.1978 8.45524 18.1808 8.42569C18.1637 8.39613 18.1467 8.36658 18.1467 8.36431C18.0831 8.2461 18.0467 8.11426 18.0467 7.90512L18.0512 7.57777C18.0649 6.98674 18.0694 6.66394 17.9603 6.31386C17.8648 6.00925 17.7011 5.71373 17.4829 5.47277C17.2374 5.19998 16.9555 5.03631 16.4418 4.74079L16.0553 4.51802L16.0544 4.51749C15.5458 4.2223 15.264 4.05878 14.9051 3.98608C14.5914 3.92243 14.2595 3.92243 13.9412 3.99517C13.5866 4.07701 13.2956 4.24523 12.8228 4.53166L12.7955 4.54529L12.4545 4.74988C12.3363 4.81353 12.209 4.84991 12.0772 4.85445H12.059H11.9181C11.7908 4.84991 11.6589 4.81353 11.4771 4.70897L11.1997 4.54529C10.6905 4.24068 10.4086 4.07246 10.0495 3.99063C9.73123 3.91788 9.40843 3.91334 9.08108 3.98154C8.72192 4.05428 8.44004 4.21795 7.92629 4.51802L7.54438 4.74079C7.03518 5.03631 6.75785 5.19998 6.51234 5.47277C6.29411 5.71373 6.13499 5.99561 6.03951 6.30932C5.9304 6.65939 5.93494 6.98219 5.94404 7.57777L5.95313 7.98695C5.95313 8.1188 5.91676 8.25065 5.83947 8.39613L5.78036 8.5007C5.71217 8.60982 5.61669 8.70529 5.43483 8.80986L5.15295 8.96899C4.63466 9.25541 4.35278 9.41454 4.10272 9.68278C3.88449 9.9192 3.71628 10.2011 3.61171 10.5193C3.49805 10.8694 3.49805 11.1967 3.49805 11.7878V12.2242C3.49805 12.7926 3.50259 13.1381 3.62535 13.4836C3.72537 13.7973 3.88904 14.0746 4.11182 14.3156C4.34593 14.5757 4.63378 14.7366 5.08969 14.9915C5.11189 15.0039 5.13449 15.0165 5.1575 15.0294L5.51212 15.2249C5.62578 15.2931 5.72126 15.3886 5.82128 15.5568L5.87129 15.6432C5.9304 15.7568 5.96677 15.8887 5.96677 16.0978L5.96222 16.4252C5.95313 17.0117 5.94858 17.3344 6.0577 17.6845C6.15772 17.9982 6.31684 18.2801 6.53507 18.5211C6.78058 18.7984 7.06246 18.9621 7.57621 19.2576L7.96266 19.4804C8.47186 19.7759 8.75374 19.935 9.11291 20.0123C9.43116 20.076 9.7585 20.076 10.0768 20.0032C10.42 19.9294 10.6843 19.7725 11.1553 19.4929C11.1773 19.4799 11.1996 19.4666 11.2225 19.4531L11.5634 19.2485C11.6771 19.1849 11.8044 19.1485 11.9363 19.1439H12.0908C12.2227 19.1485 12.35 19.1849 12.5182 19.2803L12.8092 19.4576C13.3184 19.7623 13.6003 19.9305 13.9594 20.0123ZM12.1227 17.6891H12.009H11.8908C11.5271 17.6982 11.1679 17.7982 10.8587 17.971L10.4632 18.2074L10.4218 18.232C10.0872 18.4312 9.88084 18.554 9.7585 18.5802C9.6403 18.6075 9.52209 18.6075 9.40843 18.5847C9.27658 18.5574 9.05381 18.4301 8.68554 18.2165L8.2991 17.9937C8.2695 17.9765 8.24081 17.9599 8.21303 17.9438C7.8952 17.7597 7.69657 17.6447 7.61713 17.5527C7.53984 17.4663 7.48073 17.3617 7.44436 17.2481C7.40843 17.1363 7.41107 16.9263 7.41532 16.5874C7.41591 16.5403 7.41653 16.4909 7.41708 16.4388L7.42163 15.9887C7.41708 15.6295 7.32616 15.2749 7.15794 14.9612L7.08974 14.8385C7.08519 14.8339 7.03064 14.743 7.02609 14.7339C6.83514 14.4247 6.57145 14.1656 6.26229 13.9792L5.86675 13.7564C5.49394 13.5518 5.27116 13.4291 5.18023 13.329C5.0984 13.2426 5.03929 13.1426 5.00292 13.029C4.962 12.9062 4.95746 12.6698 4.95746 12.2242V11.7878C4.95746 11.3604 4.95746 11.1058 4.99837 10.9785C5.03475 10.8649 5.09385 10.7603 5.17569 10.6739C5.26534 10.5753 5.48317 10.4546 5.85097 10.2507L5.86675 10.242L6.14863 10.0874C6.15772 10.0874 6.25319 10.0329 6.25774 10.0283C6.57145 9.84191 6.83969 9.57821 7.03064 9.26905L7.08974 9.16903C7.09201 9.16448 7.10679 9.13834 7.12157 9.1122C7.13634 9.08606 7.15112 9.05992 7.15339 9.05537C7.32616 8.73257 7.42163 8.3734 7.42618 8.00969V7.88693L7.42163 7.54595C7.41254 7.12768 7.40799 6.87308 7.44891 6.74577C7.48073 6.63211 7.53984 6.53209 7.61713 6.44571C7.70031 6.34939 7.90997 6.22778 8.25423 6.0281C8.26747 6.02041 8.28091 6.01262 8.29455 6.0047L8.67645 5.78193C9.04017 5.56825 9.26294 5.44094 9.39479 5.41367C9.513 5.39093 9.62666 5.39093 9.74487 5.41821C9.8617 5.44239 10.0464 5.55224 10.3432 5.7288C10.3813 5.75149 10.4213 5.77527 10.4632 5.80011L10.7405 5.96833C10.7428 5.97061 10.7678 5.98538 10.7928 6.00016C10.8178 6.01493 10.8428 6.02971 10.8451 6.03198C11.1634 6.20929 11.5225 6.30932 11.8817 6.31841H12.0135H12.1363C12.4955 6.30477 12.8546 6.20475 13.1774 6.02744L13.5321 5.81375L13.5593 5.80011C13.9185 5.58188 14.1367 5.45004 14.2686 5.42276C14.3868 5.39548 14.505 5.39548 14.6187 5.41821C14.7505 5.44549 14.9733 5.57279 15.3415 5.78647L15.728 6.00925C15.7416 6.01716 15.7551 6.02496 15.7683 6.03264C16.1126 6.23233 16.3222 6.35394 16.4054 6.45026C16.4827 6.53664 16.5418 6.64121 16.5782 6.75487C16.6191 6.88217 16.6145 7.13677 16.6055 7.55959L16.6009 8.01423C16.61 8.3734 16.7009 8.73712 16.8873 9.08265C16.8873 9.0872 16.9328 9.16448 16.9373 9.16903C16.9373 9.17358 16.9919 9.26905 16.9964 9.2736C17.1874 9.58276 17.4511 9.84191 17.7557 10.0238L18.1558 10.2465L18.174 10.2556C18.5331 10.4557 18.7514 10.5784 18.8423 10.6739C18.9241 10.7603 18.9832 10.8649 19.0196 10.974C19.0651 11.1013 19.0651 11.3604 19.0651 11.7832V12.2333V12.2334C19.0651 12.688 19.0651 12.9108 19.0242 13.0335C18.9878 13.1426 18.9241 13.2472 18.8469 13.3336C18.7572 13.4322 18.5394 13.5529 18.1716 13.7567L18.1558 13.7655L17.8557 13.9337C17.8466 13.9383 17.7739 13.9792 17.7693 13.9837C17.4556 14.1701 17.1874 14.4338 17.001 14.7339L16.9283 14.8521C16.926 14.8544 16.9123 14.8782 16.8987 14.9021C16.8851 14.926 16.8714 14.9498 16.8691 14.9521C16.6964 15.2749 16.6009 15.6341 16.5964 16.0114L16.6009 16.4752C16.61 16.8889 16.6145 17.139 16.5736 17.2617C16.5373 17.3708 16.4782 17.4754 16.4009 17.5663C16.3145 17.6618 16.0917 17.7936 15.728 18.0028L15.3415 18.2256C14.9733 18.4392 14.7505 18.5665 14.6187 18.5938C14.505 18.6165 14.3822 18.6165 14.2686 18.5893C14.1517 18.5651 13.9671 18.4552 13.6703 18.2787C13.6321 18.256 13.5922 18.2322 13.5502 18.2074L13.2593 18.0301C13.2547 18.0255 13.1774 17.98 13.1683 17.9755C12.8546 17.8027 12.4955 17.7027 12.1227 17.6891ZM8.1673 12.0017C8.1673 14.1203 9.8904 15.8434 12.009 15.8434C14.1277 15.8434 15.8508 14.1203 15.8508 12.0017C15.8508 9.88302 14.1277 8.15991 12.009 8.15991C9.8904 8.15991 8.1673 9.88302 8.1673 12.0017ZM9.62671 11.9971C9.62671 10.6832 10.6951 9.61478 12.009 9.61478C13.323 9.61478 14.3959 10.6877 14.3914 11.9971C14.3914 13.3156 13.323 14.384 12.009 14.384C10.6951 14.384 9.62671 13.311 9.62671 11.9971Z" fill="currentColor"/>
</svg>
