<svg width="24" height="24" viewBox="0 0 24 24" fill="currentColor" xmlns="http://www.w3.org/2000/svg">
<path fill-rule="evenodd" clip-rule="evenodd" d="M11.9999 4.5999C11.0443 4.5999 10.3499 5.30666 10.3499 6.08323C10.3499 6.66359 10.7283 7.19559 11.3248 7.43696L11.6998 7.58868V10.4334H8.64628C7.00057 10.4334 5.63998 11.6584 5.42818 13.246L5.35872 13.7667H4.2499C3.89092 13.7667 3.5999 14.0577 3.5999 14.4166C3.5999 14.7756 3.89092 15.0666 4.2499 15.0666H5.35872L5.42816 15.5873C5.63991 17.175 7.00052 18.4001 8.64628 18.4001H15.3527C16.9984 18.4001 18.359 17.175 18.5708 15.5873L18.6402 15.0666H19.7499C20.1089 15.0666 20.3999 14.7756 20.3999 14.4166C20.3999 14.0577 20.1089 13.7667 19.7499 13.7667H18.6402L18.5708 13.246C18.3589 11.6584 16.9984 10.4334 15.3526 10.4334H12.2998V7.58874L12.6748 7.43705C13.2714 7.19572 13.6499 6.66366 13.6499 6.08323C13.6499 5.30666 12.9555 4.5999 11.9999 4.5999ZM9.1499 6.08323C9.1499 4.55862 10.4702 3.3999 11.9999 3.3999C13.5296 3.3999 14.8499 4.55862 14.8499 6.08323C14.8499 7.06399 14.2965 7.89977 13.4998 8.36532V9.2334H15.3526C17.4242 9.2334 19.1643 10.6495 19.6588 12.5667H19.7499C20.7716 12.5667 21.5999 13.3949 21.5999 14.4166C21.5999 15.4384 20.7716 16.2666 19.7499 16.2666H19.6588C19.1644 18.1839 17.4243 19.6001 15.3527 19.6001H8.64628C6.57463 19.6001 4.83458 18.1839 4.34013 16.2666H4.2499C3.22817 16.2666 2.3999 15.4384 2.3999 14.4166C2.3999 13.3949 3.22817 12.5667 4.2499 12.5667H4.34017C4.83467 10.6495 6.57469 9.2334 8.64628 9.2334H10.4998V8.36515C9.70312 7.89957 9.1499 7.06387 9.1499 6.08323ZM6.8999 14.4169C6.8999 13.3525 7.81727 12.5669 8.8499 12.5669C9.88254 12.5669 10.7999 13.3525 10.7999 14.4169C10.7999 15.4813 9.88254 16.2669 8.8499 16.2669C7.81727 16.2669 6.8999 15.4813 6.8999 14.4169ZM8.8499 13.7669C8.39137 13.7669 8.0999 14.1006 8.0999 14.4169C8.0999 14.7332 8.39137 15.0669 8.8499 15.0669C9.30843 15.0669 9.5999 14.7332 9.5999 14.4169C9.5999 14.1006 9.30843 13.7669 8.8499 13.7669ZM13.2002 14.4169C13.2002 13.3525 14.1176 12.5669 15.1502 12.5669C16.1828 12.5669 17.1002 13.3525 17.1002 14.4169C17.1002 15.4813 16.1828 16.2669 15.1502 16.2669C14.1176 16.2669 13.2002 15.4813 13.2002 14.4169ZM15.1502 13.7669C14.6917 13.7669 14.4002 14.1006 14.4002 14.4169C14.4002 14.7332 14.6917 15.0669 15.1502 15.0669C15.6087 15.0669 15.9002 14.7332 15.9002 14.4169C15.9002 14.1006 15.6087 13.7669 15.1502 13.7669Z" fill="currentColor"/>
</svg>
