<svg width="24" height="24" viewBox="0 0 24 24" fill="currentColor" xmlns="http://www.w3.org/2000/svg">
<path fill-rule="evenodd" clip-rule="evenodd" d="M10.3999 17.9999C10.3999 18.8836 11.1162 19.5999 11.9999 19.5999C12.8836 19.5999 13.5999 18.8836 13.5999 17.9999C13.5999 17.1162 12.8836 16.3999 11.9999 16.3999C11.1162 16.3999 10.3999 17.1162 10.3999 17.9999ZM4.3999 17.9999C4.3999 18.8836 5.11625 19.5999 5.9999 19.5999C6.88356 19.5999 7.5999 18.8836 7.5999 17.9999C7.5999 17.1162 6.88356 16.3999 5.9999 16.3999C5.11625 16.3999 4.3999 17.1162 4.3999 17.9999ZM16.3999 11.9999C16.3999 12.8836 17.1162 13.5999 17.9999 13.5999C18.8836 13.5999 19.5999 12.8836 19.5999 11.9999C19.5999 11.1162 18.8836 10.3999 17.9999 10.3999C17.1162 10.3999 16.3999 11.1162 16.3999 11.9999ZM10.3999 11.9999C10.3999 12.8836 11.1162 13.5999 11.9999 13.5999C12.8836 13.5999 13.5999 12.8836 13.5999 11.9999C13.5999 11.1162 12.8836 10.3999 11.9999 10.3999C11.1162 10.3999 10.3999 11.1162 10.3999 11.9999ZM4.3999 11.9999C4.3999 12.8836 5.11625 13.5999 5.9999 13.5999C6.88356 13.5999 7.5999 12.8836 7.5999 11.9999C7.5999 11.1162 6.88356 10.3999 5.9999 10.3999C5.11625 10.3999 4.3999 11.1162 4.3999 11.9999ZM16.3999 5.9999C16.3999 6.88356 17.1162 7.5999 17.9999 7.5999C18.8836 7.5999 19.5999 6.88356 19.5999 5.9999C19.5999 5.11625 18.8836 4.3999 17.9999 4.3999C17.1162 4.3999 16.3999 5.11625 16.3999 5.9999ZM10.3999 5.9999C10.3999 6.88356 11.1162 7.5999 11.9999 7.5999C12.8836 7.5999 13.5999 6.88356 13.5999 5.9999C13.5999 5.11625 12.8836 4.3999 11.9999 4.3999C11.1162 4.3999 10.3999 5.11625 10.3999 5.9999ZM4.3999 5.9999C4.3999 6.88356 5.11625 7.5999 5.9999 7.5999C6.88356 7.5999 7.5999 6.88356 7.5999 5.9999C7.5999 5.11625 6.88356 4.3999 5.9999 4.3999C5.11625 4.3999 4.3999 5.11625 4.3999 5.9999Z" fill="currentColor"/>
</svg>
